<?xml version="1.0" encoding="utf-8"?>
<!-- Generator: Adobe Illustrator 23.0.5, SVG Export Plug-In . SVG Version: 6.00 Build 0)  -->
<svg version="1.1" id="Capa_1" xmlns="http://www.w3.org/2000/svg" xmlns:xlink="http://www.w3.org/1999/xlink" x="0px" y="0px"
	 viewBox="0 0 450 450" style="enable-background:new 0 0 450 450;" xml:space="preserve">
<style type="text/css">
	.st0{fill:#5DFFFD;}
</style>
<g>
	<path class="st0" d="M396.1,68.6c-17.9-17.9-41.6-27.7-66.9-27.7c-25.3,0-49,9.8-66.9,27.7c-17.9,17.9-27.9,42.4-27.7,67.7
		l-197,231.9c-2.2,2.5-2,6.3,0.3,8.6l20,20l-29.7,29.7c-2.5,2.5-2.5,6.5,0,9c1.2,1.2,2.9,1.9,4.5,1.9c1.6,0,3.3-0.6,4.5-1.9
		l29.7-29.7l21.1,21.1c1.2,1.2,2.9,1.9,4.5,1.9c1.5,0,2.9-0.5,4.1-1.5l231.8-197c0.2,0,0.5,0,0.7,0c25,0,49.3-10,67-27.7
		c17.9-17.9,27.7-41.6,27.7-66.9S413.9,86.4,396.1,68.6z M242.7,159.2l63.4,62.2l-38,33.5L210.3,197L242.7,159.2z M97.2,407.1
		l-37.6-37.8l136.7-155.4l56.4,57.4L97.2,407.1z M380.7,187c-13.9,13.9-32.3,21.4-51.9,21.3l-72.5-72.5c-0.1-19.6,7.4-38,21.3-51.9
		c13.8-13.8,32.1-21.3,51.5-21.3s37.8,7.6,51.5,21.3l0,0C394.5,97.7,402,116,402,135.5S394.5,173.3,380.7,187z"/>
	<path class="st0" d="M69.2,120.8c16.7,0,30.2-13.6,30.2-30.2V25.4h70V66c-4.9-3.5-11-5.6-17.5-5.6c-16.7,0-30.2,13.6-30.2,30.2
		s13.5,30.2,30.2,30.2S182,107.3,182,90.6V19.1c0-3.5-2.9-6.4-6.4-6.4H93c-3.5,0-6.4,2.9-6.4,6.4v47c-4.9-3.5-11-5.6-17.5-5.6
		C52.5,60.4,39,74,39,90.6S52.5,120.8,69.2,120.8z M151.9,103.7c-7.2,0-13.1-5.9-13.1-13.1s5.9-13.1,13.1-13.1s13.1,5.9,13.1,13.1
		S159.1,103.7,151.9,103.7z M69.2,77.9c7,0,12.7,5.7,12.7,12.7s-5.7,12.7-12.7,12.7s-12.7-5.7-12.7-12.7S62.1,77.9,69.2,77.9z"/>
</g>
</svg>
